<svg width="88" height="27" viewBox="0 0 88 27" fill="none" xmlns="http://www.w3.org/2000/svg">
<rect width="88" height="27" rx="13.5" fill="#045AC7"/>
<path d="M23.2301 17.1101C22.8845 17.1101 22.5732 17.0485 22.2962 16.9254C22.0215 16.8 21.8037 16.6153 21.6428 16.3714C21.4841 16.1276 21.4048 15.8269 21.4048 15.4695C21.4048 15.1617 21.4616 14.9072 21.5753 14.706C21.6889 14.5047 21.844 14.3438 22.0405 14.223C22.237 14.1023 22.4583 14.0111 22.7045 13.9496C22.9531 13.8857 23.21 13.8395 23.4751 13.8111C23.7947 13.7779 24.054 13.7483 24.2528 13.7223C24.4517 13.6939 24.5961 13.6513 24.6861 13.5945C24.7784 13.5353 24.8246 13.4441 24.8246 13.321V13.2997C24.8246 13.0322 24.7453 12.825 24.5866 12.6783C24.428 12.5315 24.1996 12.4581 23.9013 12.4581C23.5864 12.4581 23.3366 12.5268 23.152 12.6641C22.9697 12.8014 22.8466 12.9635 22.7827 13.1506L21.5824 12.9801C21.6771 12.6487 21.8333 12.3717 22.0511 12.1491C22.2689 11.9242 22.5353 11.7562 22.8501 11.6449C23.165 11.5312 23.513 11.4744 23.8942 11.4744C24.157 11.4744 24.4186 11.5052 24.679 11.5668C24.9394 11.6283 25.1773 11.7301 25.3928 11.8722C25.6082 12.0118 25.781 12.2024 25.9112 12.4439C26.0438 12.6854 26.1101 12.9872 26.1101 13.3494V17H24.8743V16.2507H24.8317C24.7536 16.4022 24.6435 16.5443 24.5014 16.6768C24.3617 16.8071 24.1854 16.9124 23.9723 16.9929C23.7616 17.071 23.5142 17.1101 23.2301 17.1101ZM23.5639 16.1655C23.822 16.1655 24.0457 16.1146 24.2351 16.0128C24.4245 15.9086 24.5701 15.7713 24.6719 15.6009C24.776 15.4304 24.8281 15.2446 24.8281 15.0433V14.4006C24.7879 14.4337 24.7192 14.4645 24.6222 14.4929C24.5275 14.5213 24.4209 14.5462 24.3026 14.5675C24.1842 14.5888 24.067 14.6077 23.951 14.6243C23.835 14.6409 23.7344 14.6551 23.6491 14.6669C23.4574 14.6929 23.2857 14.7356 23.1342 14.7947C22.9827 14.8539 22.8632 14.9368 22.7756 15.0433C22.688 15.1475 22.6442 15.2824 22.6442 15.4482C22.6442 15.6849 22.7306 15.8636 22.9034 15.9844C23.0762 16.1051 23.2964 16.1655 23.5639 16.1655ZM29.4268 17.0959C28.9983 17.0959 28.6148 16.9858 28.2763 16.7656C27.9377 16.5455 27.6702 16.2259 27.4737 15.8068C27.2772 15.3878 27.179 14.8788 27.179 14.2798C27.179 13.6738 27.2784 13.1624 27.4773 12.7457C27.6785 12.3267 27.9496 12.0107 28.2905 11.7976C28.6314 11.5821 29.0114 11.4744 29.4304 11.4744C29.75 11.4744 30.0128 11.5289 30.2188 11.6378C30.4247 11.7443 30.5881 11.8733 30.7088 12.0249C30.8295 12.174 30.9231 12.3149 30.9893 12.4474H31.0426V9.72727H32.3317V17H31.0675V16.1406H30.9893C30.9231 16.2732 30.8272 16.4141 30.7017 16.5632C30.5762 16.71 30.4105 16.8355 30.2045 16.9396C29.9986 17.0438 29.7393 17.0959 29.4268 17.0959ZM29.7855 16.0412C30.0578 16.0412 30.2898 15.9678 30.4815 15.821C30.6733 15.6719 30.8189 15.4647 30.9183 15.1996C31.0178 14.9344 31.0675 14.6255 31.0675 14.2727C31.0675 13.92 31.0178 13.6134 30.9183 13.353C30.8213 13.0926 30.6768 12.8902 30.4851 12.7457C30.2957 12.6013 30.0625 12.5291 29.7855 12.5291C29.4991 12.5291 29.2599 12.6037 29.0682 12.7528C28.8764 12.902 28.732 13.108 28.6349 13.3707C28.5379 13.6335 28.4893 13.9342 28.4893 14.2727C28.4893 14.6136 28.5379 14.9179 28.6349 15.1854C28.7344 15.4505 28.88 15.66 29.0717 15.8139C29.2659 15.9654 29.5038 16.0412 29.7855 16.0412ZM33.7015 17V11.5455H34.987V17H33.7015ZM34.3478 10.7713C34.1442 10.7713 33.969 10.7038 33.8223 10.5689C33.6755 10.4316 33.6021 10.267 33.6021 10.0753C33.6021 9.88116 33.6755 9.71662 33.8223 9.58168C33.969 9.44437 34.1442 9.37571 34.3478 9.37571C34.5538 9.37571 34.729 9.44437 34.8734 9.58168C35.0202 9.71662 35.0936 9.88116 35.0936 10.0753C35.0936 10.267 35.0202 10.4316 34.8734 10.5689C34.729 10.7038 34.5538 10.7713 34.3478 10.7713ZM38.6882 17.1065C38.1437 17.1065 37.6761 16.987 37.2855 16.7479C36.8973 16.5088 36.5978 16.1785 36.3871 15.7571C36.1787 15.3333 36.0746 14.8456 36.0746 14.294C36.0746 13.7401 36.1811 13.2512 36.3942 12.8274C36.6072 12.4013 36.9079 12.0698 37.2962 11.8331C37.6868 11.594 38.1484 11.4744 38.6811 11.4744C39.1238 11.4744 39.5156 11.5561 39.8565 11.7195C40.1998 11.8804 40.4732 12.1089 40.6768 12.4048C40.8804 12.6984 40.9964 13.0417 41.0249 13.4347H39.7962C39.7464 13.1719 39.6281 12.9529 39.4411 12.7777C39.2564 12.6001 39.009 12.5114 38.6989 12.5114C38.4361 12.5114 38.2053 12.5824 38.0064 12.7244C37.8075 12.8641 37.6525 13.0653 37.5412 13.3281C37.4323 13.5909 37.3778 13.9058 37.3778 14.2727C37.3778 14.6444 37.4323 14.964 37.5412 15.2315C37.6501 15.4967 37.8028 15.7015 37.9993 15.8459C38.1982 15.9879 38.4313 16.0589 38.6989 16.0589C38.8883 16.0589 39.0575 16.0234 39.2067 15.9524C39.3582 15.879 39.4848 15.7737 39.5866 15.6364C39.6884 15.4991 39.7583 15.3321 39.7962 15.1357H41.0249C40.9941 15.5215 40.8804 15.8636 40.6839 16.1619C40.4875 16.4579 40.2199 16.6899 39.8814 16.858C39.5429 17.0237 39.1451 17.1065 38.6882 17.1065ZM42.0804 17V11.5455H43.3659V17H42.0804ZM42.7267 10.7713C42.5231 10.7713 42.348 10.7038 42.2012 10.5689C42.0544 10.4316 41.981 10.267 41.981 10.0753C41.981 9.88116 42.0544 9.71662 42.2012 9.58168C42.348 9.44437 42.5231 9.37571 42.7267 9.37571C42.9327 9.37571 43.1079 9.44437 43.2523 9.58168C43.3991 9.71662 43.4725 9.88116 43.4725 10.0753C43.4725 10.267 43.3991 10.4316 43.2523 10.5689C43.1079 10.7038 42.9327 10.7713 42.7267 10.7713ZM47.0671 17.1065C46.5344 17.1065 46.0728 16.9893 45.6822 16.755C45.2915 16.5206 44.9885 16.1927 44.7731 15.7713C44.56 15.3499 44.4535 14.8575 44.4535 14.294C44.4535 13.7306 44.56 13.237 44.7731 12.8132C44.9885 12.3894 45.2915 12.0604 45.6822 11.826C46.0728 11.5916 46.5344 11.4744 47.0671 11.4744C47.5998 11.4744 48.0614 11.5916 48.4521 11.826C48.8427 12.0604 49.1445 12.3894 49.3576 12.8132C49.573 13.237 49.6808 13.7306 49.6808 14.294C49.6808 14.8575 49.573 15.3499 49.3576 15.7713C49.1445 16.1927 48.8427 16.5206 48.4521 16.755C48.0614 16.9893 47.5998 17.1065 47.0671 17.1065ZM47.0742 16.0767C47.363 16.0767 47.6045 15.9974 47.7987 15.8388C47.9928 15.6778 48.1372 15.4624 48.2319 15.1925C48.329 14.9226 48.3775 14.6219 48.3775 14.2905C48.3775 13.9567 48.329 13.6548 48.2319 13.3849C48.1372 13.1127 47.9928 12.8961 47.7987 12.7351C47.6045 12.5741 47.363 12.4936 47.0742 12.4936C46.7783 12.4936 46.5321 12.5741 46.3356 12.7351C46.1415 12.8961 45.9959 13.1127 45.8988 13.3849C45.8041 13.6548 45.7567 13.9567 45.7567 14.2905C45.7567 14.6219 45.8041 14.9226 45.8988 15.1925C45.9959 15.4624 46.1415 15.6778 46.3356 15.8388C46.5321 15.9974 46.7783 16.0767 47.0742 16.0767ZM52.0574 13.804V17H50.7718V11.5455H52.0005V12.4723H52.0645C52.1899 12.1669 52.39 11.9242 52.6646 11.7443C52.9416 11.5644 53.2837 11.4744 53.6909 11.4744C54.0673 11.4744 54.3952 11.5549 54.6745 11.7159C54.9563 11.8769 55.1741 12.1101 55.3279 12.4155C55.4842 12.7209 55.5611 13.0914 55.5588 13.527V17H54.2733V13.7259C54.2733 13.3613 54.1786 13.076 53.9892 12.87C53.8021 12.6641 53.5429 12.5611 53.2115 12.5611C52.9866 12.5611 52.7865 12.6108 52.6113 12.7102C52.4385 12.8073 52.3024 12.9482 52.2029 13.1328C52.1059 13.3175 52.0574 13.5412 52.0574 13.804ZM58.4352 17.1101C58.0895 17.1101 57.7782 17.0485 57.5012 16.9254C57.2266 16.8 57.0088 16.6153 56.8478 16.3714C56.6892 16.1276 56.6099 15.8269 56.6099 15.4695C56.6099 15.1617 56.6667 14.9072 56.7804 14.706C56.894 14.5047 57.0491 14.3438 57.2456 14.223C57.4421 14.1023 57.6634 14.0111 57.9096 13.9496C58.1582 13.8857 58.4151 13.8395 58.6802 13.8111C58.9998 13.7779 59.2591 13.7483 59.4579 13.7223C59.6568 13.6939 59.8012 13.6513 59.8912 13.5945C59.9835 13.5353 60.0297 13.4441 60.0297 13.321V13.2997C60.0297 13.0322 59.9503 12.825 59.7917 12.6783C59.6331 12.5315 59.4047 12.4581 59.1064 12.4581C58.7915 12.4581 58.5417 12.5268 58.3571 12.6641C58.1748 12.8014 58.0517 12.9635 57.9877 13.1506L56.7875 12.9801C56.8822 12.6487 57.0384 12.3717 57.2562 12.1491C57.474 11.9242 57.7404 11.7562 58.0552 11.6449C58.3701 11.5312 58.7181 11.4744 59.0993 11.4744C59.362 11.4744 59.6236 11.5052 59.8841 11.5668C60.1445 11.6283 60.3824 11.7301 60.5978 11.8722C60.8133 12.0118 60.9861 12.2024 61.1163 12.4439C61.2489 12.6854 61.3152 12.9872 61.3152 13.3494V17H60.0794V16.2507H60.0368C59.9586 16.4022 59.8485 16.5443 59.7065 16.6768C59.5668 16.8071 59.3904 16.9124 59.1774 16.9929C58.9667 17.071 58.7193 17.1101 58.4352 17.1101ZM58.769 16.1655C59.027 16.1655 59.2508 16.1146 59.4402 16.0128C59.6296 15.9086 59.7752 15.7713 59.877 15.6009C59.9811 15.4304 60.0332 15.2446 60.0332 15.0433V14.4006C59.993 14.4337 59.9243 14.4645 59.8272 14.4929C59.7325 14.5213 59.626 14.5462 59.5076 14.5675C59.3893 14.5888 59.2721 14.6077 59.1561 14.6243C59.0401 14.6409 58.9395 14.6551 58.8542 14.6669C58.6625 14.6929 58.4908 14.7356 58.3393 14.7947C58.1878 14.8539 58.0682 14.9368 57.9806 15.0433C57.8931 15.1475 57.8493 15.2824 57.8493 15.4482C57.8493 15.6849 57.9357 15.8636 58.1085 15.9844C58.2813 16.1051 58.5015 16.1655 58.769 16.1655ZM62.6078 17V11.5455H63.8542V12.4545H63.911C64.0105 12.1397 64.1809 11.897 64.4224 11.7266C64.6663 11.5537 64.9444 11.4673 65.2569 11.4673C65.3279 11.4673 65.4073 11.4709 65.4949 11.478C65.5848 11.4827 65.6594 11.491 65.7186 11.5028V12.6854C65.6641 12.6664 65.5777 12.6499 65.4593 12.6357C65.3433 12.6191 65.2309 12.6108 65.122 12.6108C64.8876 12.6108 64.6769 12.6617 64.4899 12.7635C64.3052 12.8629 64.1596 13.0014 64.0531 13.179C63.9466 13.3565 63.8933 13.5613 63.8933 13.7933V17H62.6078Z" fill="white"/>
</svg>
