<svg width="120" height="39" viewBox="0 0 120 39" fill="none" xmlns="http://www.w3.org/2000/svg">
<path fill-rule="evenodd" clip-rule="evenodd" d="M5.49221 0.149611C3.39041 0.683593 1.59968 2.20706 0.667207 4.25461C0.104833 5.48943 0.103364 5.52384 0.0257188 18.613C-0.0668672 34.2284 -0.0210642 34.621 2.14148 36.7466C3.72108 38.2988 4.75079 38.5968 9.28873 38.8147C14.4424 39.0622 23.1497 39.0617 28.5772 38.8134C32.5743 38.6305 32.8771 38.5812 34.2002 37.8975C35.8562 37.0414 37.039 35.5979 37.5725 33.7818C38.1508 31.8137 38.1273 6.75049 37.5456 4.97946C36.9445 3.15001 35.821 1.78745 34.1498 0.860845L32.6802 0.0461322L19.4536 0.00454267C12.179 -0.0182326 5.89636 0.0468747 5.49221 0.149611ZM30.2553 7.20055C30.8723 7.82415 31.0881 8.25787 31.0881 8.87528C31.0881 9.63628 30.477 10.3272 24.0119 16.8744C20.1198 20.8155 16.7069 24.1432 16.4276 24.2692C15.3695 24.7465 14.7444 24.2395 9.70267 18.8142C7.51171 16.457 7.31723 15.7401 8.53506 14.5092C9.77149 13.2595 10.2552 13.4553 13.22 16.4082L15.8533 19.0308L22.0622 12.6897C26.7079 7.94521 28.4163 6.34994 28.8469 6.35366C29.17 6.35663 29.7877 6.72796 30.2553 7.20055ZM60.5544 6.85694C59.9482 7.10376 59.2558 8.29377 59.2558 9.08868C59.2558 9.96676 60.5476 11.0625 61.5827 11.0625C62.6058 11.0625 63.9096 9.96998 63.9096 9.11269C63.9096 7.35602 62.182 6.19448 60.5544 6.85694ZM45.2944 17.499V28.1439H51.5403H57.7861V26.2873V24.4306H53.6222H49.4583V15.6423V6.85397H47.3763H45.2944V17.499ZM81.7899 10.6911V12.7954H80.5652H79.3406V14.4045V16.0136H80.5508H81.7608L81.8367 20.8237C81.9063 25.2495 81.9533 25.6894 82.4248 26.3318C83.5912 27.9211 85.5262 28.624 87.7909 28.2806L88.8931 28.1135V26.5197V24.9257H87.9023C87.1768 24.9257 86.7504 24.763 86.3102 24.3179C85.7233 23.725 85.7089 23.6178 85.7089 19.8619V16.0136H87.301H88.8931V14.4045V12.7954H87.301H85.7089V10.6911V8.58688H83.7494H81.7899V10.6911ZM69.6656 12.8466C68.6172 13.2169 67.3737 14.2109 66.829 15.114C66.2541 16.0666 66.2017 18.2062 66.7278 19.2346C67.2299 20.2161 68.7838 21.0655 71.1756 21.6661C73.5627 22.2654 74.5981 22.768 74.8055 23.4282C75.1394 24.4917 73.899 25.6684 72.4439 25.6684C71.1313 25.6684 70.3166 25.2824 69.8392 24.4343C69.4309 23.7094 69.3738 23.6909 67.5341 23.6894L65.6476 23.6879L65.9881 24.8316C66.7065 27.2441 68.6758 28.3866 72.1149 28.3866C76.0342 28.3866 78.1367 26.8433 78.3032 23.8439C78.4507 21.1871 77.3654 20.1842 73.2813 19.2039C72.1024 18.9209 70.9471 18.5862 70.7136 18.46C69.0655 17.5685 70.0719 15.2709 72.1105 15.2709C73.1664 15.2709 73.948 15.7408 74.3661 16.6268L74.7774 17.499H76.5887H78.3997L78.2283 16.6944C77.8386 14.8654 76.4706 13.3647 74.7059 12.8303C73.563 12.4842 70.6644 12.4936 69.6656 12.8466ZM59.7456 20.4696V28.1439H61.7051H63.6646V20.4696V12.7954H61.7051H59.7456V20.4696ZM91.0975 14.4045V16.0136H94.6491C96.6024 16.0136 98.2007 16.0681 98.2007 16.1347C98.2007 16.2013 96.6024 18.1671 94.6491 20.5033L91.0975 24.7512V26.4474V28.1439L97.0372 28.1442H102.977L102.941 26.4732L102.905 24.8019L99.2024 24.7336L95.5002 24.6653L98.1431 21.5153C103.203 15.4851 102.854 16.0181 102.854 14.3082V12.7954H96.976H91.0975V14.4045ZM104.079 13.0142C104.079 13.1345 104.508 14.2762 105.033 15.5517C105.557 16.8268 106.935 20.2407 108.094 23.1381L110.203 28.4059L109.473 29.8662C108.617 31.5808 107.977 32.1049 106.741 32.1049H105.837L105.754 33.591L105.671 35.0773L106.467 35.2278C108.294 35.5731 110.335 34.6928 111.591 33.0166C112.061 32.3898 113.874 28.2462 116.184 22.5167C118.283 17.3113 120 12.9946 120 12.9238C120 12.8533 119.073 12.7954 117.941 12.7954H115.881L115.405 14.2188C115.143 15.0018 114.285 17.3544 113.498 19.4467L112.068 23.2512L111.295 21.1796C110.871 20.0404 109.994 17.6876 109.347 15.9517L108.171 12.7954H106.125C105 12.7954 104.079 12.8939 104.079 13.0142ZM31.3749 20.6318C31.9608 21.1678 31.9473 22.1179 31.3492 22.4414C31.0788 22.5875 29.1825 22.6977 26.9342 22.6977H22.9929L22.7477 22.0454C22.5611 21.5495 22.5934 21.2527 22.8817 20.8076C23.2543 20.2332 23.3346 20.2221 27.0941 20.2221C30.317 20.2221 30.9984 20.2872 31.3749 20.6318ZM31.529 26.213C31.9245 26.6128 31.9013 27.5226 31.4863 27.8704C31.2495 28.0692 29.3478 28.133 25.0626 28.0865L18.9752 28.0202L18.7487 27.3683C18.2429 25.9142 18.2348 25.9159 25.0305 25.9159C29.5295 25.9159 31.3159 25.9976 31.529 26.213ZM31.4381 31.7511C31.9336 32.2522 31.9265 32.8166 31.4175 33.385C31.041 33.8056 30.4576 33.8378 23.2121 33.8378C15.7386 33.8378 15.3916 33.817 14.9223 33.3427C14.3694 32.7839 14.2898 32.1004 14.7263 31.6593C14.9428 31.4404 17.1282 31.3622 23.0368 31.3622C29.9976 31.3622 31.1037 31.4134 31.4381 31.7511Z" fill="#045AC7"/>
</svg>
