<svg width="40" height="40" viewBox="0 0 40 40" fill="none" xmlns="http://www.w3.org/2000/svg">
<g clip-path="url(#clip0_20_2)">
<path d="M20 40C31.0457 40 40 31.0457 40 20C40 8.9543 31.0457 0 20 0C8.9543 0 0 8.9543 0 20C0 31.0457 8.9543 40 20 40Z" fill="#CCCCCC"/>
<path d="M20 20C23.4518 20 26.25 17.2018 26.25 13.75C26.25 10.2982 23.4518 7.5 20 7.5C16.5482 7.5 13.75 10.2982 13.75 13.75C13.75 17.2018 16.5482 20 20 20Z" fill="#F2F2F2"/>
<path d="M10 32.5C10 26.975 14.475 22.5 20 22.5C25.525 22.5 30 26.975 30 32.5" fill="#F2F2F2"/>
</g>
<defs>
<clipPath id="clip0_20_2">
<rect width="40" height="40" fill="white"/>
</clipPath>
</defs>
</svg>
